<svg width="200" height="60" viewBox="0 0 200 60" fill="none" xmlns="http://www.w3.org/2000/svg">
  <path d="M20 10H40C45.5228 10 50 14.4772 50 20V40C50 45.5228 45.5228 50 40 50H20C14.4772 50 10 45.5228 10 40V20C10 14.4772 14.4772 10 20 10Z" fill="#4CAF50"/>
  <path d="M60 15H180C185.523 15 190 19.4772 190 25V35C190 40.5228 185.523 45 180 45H60C54.4772 45 50 40.5228 50 35V25C50 19.4772 54.4772 15 60 15Z" fill="#4CAF50"/>
  <text x="65" y="35" font-family="Arial, sans-serif" font-size="18" font-weight="bold" fill="white">RESEARKA</text>
  <path d="M25 20L35 30M35 20L25 30" stroke="white" stroke-width="2"/>
  <path d="M30 20V40" stroke="white" stroke-width="2"/>
</svg>
